<?xml version="1.0"?>
<svg xmlns="http://www.w3.org/2000/svg" viewBox="0 0 64 64" fill="gray">
    <path d="M 40.648438 3.21875 C 39.368063 3.21875 38.088281 3.7051875 37.113281 4.6796875 L 2.4648438 39.328125 C 0.51584375 41.277125 0.51584375 44.449437 2.4648438 46.398438 L 12.601562 56.535156 C 13.545563 57.479156 14.801719 58 16.136719 58 L 22.986328 58 L 26.964844 58 L 42.986328 58 C 43.538328 58 43.986328 57.553 43.986328 57 C 43.986328 56.447 43.538328 56 42.986328 56 L 31.035156 56 L 59.712891 27.310547 C 60.663891 26.367547 61.189406 25.111484 61.191406 23.771484 C 61.195406 22.431484 60.675516 21.171609 59.728516 20.224609 L 44.183594 4.6796875 C 43.209094 3.7051875 41.928812 3.21875 40.648438 3.21875 z M 40.648438 5.2167969 C 41.417437 5.2167969 42.184531 5.50875 42.769531 6.09375 L 58.314453 21.638672 C 58.882453 22.206672 59.195359 22.963578 59.193359 23.767578 C 59.191359 24.570578 58.875734 25.324531 58.302734 25.894531 L 57.169922 27.027344 L 45.921875 15.779297 C 45.530875 15.388297 44.898812 15.388297 44.507812 15.779297 C 44.116813 16.170297 44.116812 16.802359 44.507812 17.193359 L 55.755859 28.441406 L 42.171875 42.029297 L 22.380859 22.238281 L 38.527344 6.09375 C 39.112344 5.50875 39.880437 5.2167969 40.648438 5.2167969 z M 39.214844 9.4863281 C 38.959094 9.4863281 38.703313 9.5837969 38.507812 9.7792969 C 38.116813 10.170297 38.116812 10.802359 38.507812 11.193359 L 41.388672 14.074219 C 41.583672 14.269219 41.839703 14.367188 42.095703 14.367188 C 42.351703 14.367188 42.607734 14.269219 42.802734 14.074219 C 43.193734 13.683219 43.193734 13.051156 42.802734 12.660156 L 39.921875 9.7792969 C 39.726375 9.5837969 39.470594 9.4863281 39.214844 9.4863281 z M 29.320312 20.425781 C 29.064438 20.425781 28.808281 20.525203 28.613281 20.720703 L 27.199219 22.134766 C 26.808219 22.525766 26.808219 23.157828 27.199219 23.548828 C 27.394219 23.743828 27.65025 23.841797 27.90625 23.841797 C 28.16225 23.841797 28.418281 23.743828 28.613281 23.548828 L 30.027344 22.134766 C 30.418344 21.743766 30.418344 21.111703 30.027344 20.720703 C 29.831844 20.525203 29.576187 20.425781 29.320312 20.425781 z M 20.966797 23.652344 L 40.757812 43.443359 L 29.085938 55.121094 C 28.518937 55.688094 27.766844 56 26.964844 56 L 22.986328 56 L 16.134766 56 C 15.344766 56 14.572672 55.680094 14.013672 55.121094 L 3.8789062 44.984375 C 2.7099062 43.814375 2.7099062 41.912187 3.8789062 40.742188 L 20.966797 23.652344 z M 32.855469 23.960938 C 32.599719 23.960938 32.343937 24.060359 32.148438 24.255859 L 30.734375 25.669922 C 30.343375 26.060922 30.343375 26.691031 30.734375 27.082031 C 30.929375 27.277031 31.185406 27.376953 31.441406 27.376953 C 31.697406 27.376953 31.953437 27.277031 32.148438 27.082031 L 33.5625 25.669922 C 33.9535 25.278922 33.9535 24.646859 33.5625 24.255859 C 33.367 24.060359 33.111219 23.960938 32.855469 23.960938 z M 36.390625 27.498047 C 36.134875 27.498047 35.879094 27.595516 35.683594 27.791016 L 34.269531 29.205078 C 33.878531 29.596078 33.878531 30.228141 34.269531 30.619141 C 34.464531 30.814141 34.720563 30.912109 34.976562 30.912109 C 35.232563 30.912109 35.488594 30.814141 35.683594 30.619141 L 37.097656 29.205078 C 37.488656 28.814078 37.488656 28.182016 37.097656 27.791016 C 36.902156 27.595516 36.646375 27.498047 36.390625 27.498047 z M 39.925781 31.033203 C 39.669906 31.033328 39.415703 31.131172 39.220703 31.326172 L 37.804688 32.740234 C 37.413688 33.131234 37.413688 33.763297 37.804688 34.154297 C 37.999688 34.349297 38.255719 34.447266 38.511719 34.447266 C 38.767719 34.447266 39.02375 34.349297 39.21875 34.154297 L 40.634766 32.740234 C 41.025766 32.349234 41.025766 31.717172 40.634766 31.326172 C 40.439266 31.130672 40.181656 31.033078 39.925781 31.033203 z M 43.460938 34.568359 C 43.204937 34.568359 42.949406 34.666328 42.753906 34.861328 L 41.339844 36.275391 C 40.949844 36.666391 40.949844 37.299453 41.339844 37.689453 C 41.534844 37.884453 41.790875 37.982422 42.046875 37.982422 C 42.302875 37.982422 42.559859 37.884453 42.755859 37.689453 L 44.169922 36.275391 C 44.559922 35.884391 44.559922 35.251328 44.169922 34.861328 C 43.974422 34.666328 43.716938 34.568359 43.460938 34.568359 z M 48.986328 56 C 48.434328 56 47.986328 56.447 47.986328 57 C 47.986328 57.553 48.434328 58 48.986328 58 L 52.986328 58 C 53.538328 58 53.986328 57.553 53.986328 57 C 53.986328 56.447 53.538328 56 52.986328 56 L 48.986328 56 z"/>
</svg>
